<?xml version="1.0" standalone="no"?><!DOCTYPE svg PUBLIC "-//W3C//DTD SVG 1.1//EN" "http://www.w3.org/Graphics/SVG/1.1/DTD/svg11.dtd"><svg t="1680836590028" class="icon" viewBox="0 0 1024 1024" version="1.1" xmlns="http://www.w3.org/2000/svg" p-id="3887" xmlns:xlink="http://www.w3.org/1999/xlink" width="48" height="48"><path d="M704 256 320 256C281.6 256 256 281.6 256 320l0 512c0 38.4 25.6 64 64 64l384 0c38.4 0 64-25.6 64-64L768 320C768 281.6 742.4 256 704 256zM736 806.4c0 32-25.6 57.6-57.6 57.6L345.6 864c-32 0-57.6-25.6-57.6-57.6L288 345.6c0-32 25.6-57.6 57.6-57.6l332.8 0c32 0 57.6 25.6 57.6 57.6L736 806.4z" p-id="3888" fill="#2c2c2c"></path><path d="M492.8 422.4l32 0 0 320-32 0 0-320Z" p-id="3889" fill="#2c2c2c"></path><path d="M588.8 422.4l32 0 0 320-32 0 0-320Z" p-id="3890" fill="#2c2c2c"></path><path d="M396.8 422.4l32 0 0 320-32 0 0-320Z" p-id="3891" fill="#2c2c2c"></path><path d="M832 217.6 832 217.6c0 6.4-6.4 19.2-12.8 19.2L204.8 236.8C198.4 236.8 192 224 192 217.6l0 0c0-6.4 6.4-12.8 12.8-12.8l608 0C825.6 204.8 832 211.2 832 217.6z" p-id="3892" fill="#2c2c2c"></path><path d="M608 140.8l-192 0C396.8 140.8 384 153.6 384 172.8l0 32 32 0L416 185.6c0-6.4 6.4-12.8 12.8-12.8l166.4 0c6.4 0 12.8 6.4 12.8 12.8l0 19.2L640 204.8 640 172.8C640 153.6 627.2 140.8 608 140.8z" p-id="3893" fill="#2c2c2c"></path></svg>