<?xml version="1.0" standalone="no"?><!DOCTYPE svg PUBLIC "-//W3C//DTD SVG 1.1//EN" "http://www.w3.org/Graphics/SVG/1.1/DTD/svg11.dtd"><svg t="1680832289794" class="icon" viewBox="0 0 1024 1024" version="1.1" xmlns="http://www.w3.org/2000/svg" p-id="2640" xmlns:xlink="http://www.w3.org/1999/xlink" width="48" height="48"><path d="M573.2 198.8c0.4-2.7 0.6-5.4 0.6-8.1 0-34.1-27.7-61.8-61.8-61.8s-61.8 27.7-61.8 61.8c0 2.8 0.2 5.5 0.6 8.1h122.4zM512 185.9c2.6 0 4.8 2.1 4.8 4.8s-2.1 4.8-4.8 4.8-4.8-2.1-4.8-4.8 2.2-4.8 4.8-4.8z" fill="#2c2c2c" p-id="2641"></path><path d="M772.9 765.3c-14.6 0-27-11.5-28.2-26.2-0.1-1.5-14-170-27.4-293.6C706 341 631.8 235.4 512 235.4c-110.2 0-192.7 84.3-205.3 209.9-13.7 136.1-27.3 292.6-27.5 294-1.3 14.6-13.7 26-28.4 26-0.9 0-1.7 0-2.5-0.1-7.6-0.7-14.5-4.2-19.4-10.1-4.9-5.8-7.2-13.2-6.6-20.8 0.1-1.3 13.8-158.6 27.5-294.7 15.7-156.2 121-261.1 262-261.1 135.4 0 245.6 109.7 262 260.9 13.7 126.1 27.4 293.6 27.6 295.1 1.3 15.7-10.4 29.4-26.1 30.7-0.7 0-1.5 0.1-2.4 0.1z" fill="#2c2c2c" p-id="2642"></path><path d="M182.1 786.9c-15.7 0-28.5-12.8-28.5-28.5s12.8-28.5 28.5-28.5h659.8c15.7 0 28.5 12.8 28.5 28.5s-12.8 28.5-28.5 28.5H182.1z" fill="#2c2c2c" p-id="2643"></path><path d="M518.9 895.1c-68.8 0-124.7-56.3-124.7-125.5 0-15.7 12.8-28.5 28.5-28.5s28.5 12.8 28.5 28.5c0 37.8 30.4 68.5 67.7 68.5 37.3 0 67.7-30.7 67.7-68.5 0-15.7 12.8-28.5 28.5-28.5s28.5 12.8 28.5 28.5c0 69.2-56 125.5-124.7 125.5zM598.2 656.7H425.8c-15.7 0-28.5-12.8-28.5-28.5s12.8-28.5 28.5-28.5h172.4c15.7 0 28.5 12.8 28.5 28.5s-12.8 28.5-28.5 28.5z" fill="#2c2c2c" p-id="2644"></path></svg>